<svg version="1" xmlns="http://www.w3.org/2000/svg" width="933.333" height="933.333" viewBox="0 0 700.000000 700.000000"><path d="M59.1 15.2c-.4 1.3-.6 81.8-.2 87.3.1.8 38 1.1 121.9 1 66.9-.1 122.3.1 123 .3.9.3 1.2 50.5 1.2 246.3 0 135.2-.3 245.9-.7 246-.5.1-45.5.2-100.1.3-65.3 0-99.6-.2-100.1-.9-.4-.6-.6-23.3-.6-50.5v-49.5l-44.2.1c-24.3 0-44.5.3-44.9.7-.4.4-.7 33.1-.7 72.8v72.1l22.5 22.5 22.6 22.6h582.4l22.5-22.5 22.6-22.6v-72.1c0-39.7-.3-72.5-.7-72.8-1.1-1.2-88.6-.9-88.7.2-.1.5-.3 22.8-.4 49.5-.2 26.7-.3 48.9-.4 49.5-.1.7-33.8 1-99.4.9-54.5-.1-99.8-.2-100.5-.3-1-.1-1.2-49.7-1-246.3l.3-246.2 100.2-.1c66.2 0 100.3.3 100.4 1 .1.5.2 22.8.4 49.5.1 26.7.3 48.9.4 49.5 0 .7 15.3.9 43.8.8 24.1 0 44.3-.1 44.8-.2.7-.1 1-25 .9-72.7l-.1-72.6-22.6-22.6-22.5-22.5-290.7-.1c-272.1-.1-290.8 0-291.4 1.6z"/></svg>